<?xml version="1.0" encoding="utf-8"?>
<!-- Generator: Adobe Illustrator 17.0.0, SVG Export Plug-In . SVG Version: 6.00 Build 0)  -->
<!DOCTYPE svg PUBLIC "-//W3C//DTD SVG 1.1//EN" "http://www.w3.org/Graphics/SVG/1.1/DTD/svg11.dtd">
<svg version="1.1" xmlns="http://www.w3.org/2000/svg" xmlns:xlink="http://www.w3.org/1999/xlink" x="0px" y="0px" width="400px"
	 height="400px" viewBox="0 0 400 400" enable-background="new 0 0 400 400" xml:space="preserve">
<g id="Layer_2">
</g>
<g id="Layer_1">
	
		<rect x="92.332" y="87.222" fill-rule="evenodd" clip-rule="evenodd" fill="none" stroke="#B3B4B4" stroke-width="14.2416" stroke-miterlimit="10" width="84.72" height="84.72"/>
	
		<rect x="227.884" y="87.222" fill-rule="evenodd" clip-rule="evenodd" fill="none" stroke="#B3B4B4" stroke-width="14.2416" stroke-miterlimit="10" width="84.72" height="84.72"/>
	
		<rect x="227.884" y="222.774" fill-rule="evenodd" clip-rule="evenodd" fill="none" stroke="#B3B4B4" stroke-width="14.2416" stroke-miterlimit="10" width="84.72" height="84.72"/>
	
		<rect x="92.332" y="222.774" fill-rule="evenodd" clip-rule="evenodd" fill="none" stroke="#B3B4B4" stroke-width="14.2416" stroke-miterlimit="10" width="84.72" height="84.72"/>
	<path fill-rule="evenodd" clip-rule="evenodd" fill="#4A494A" d="M204.416,57.924c-0.17,0.106-0.36,0.194-0.519,0.302
		c-5.824,3.645-11.32,7.751-16.565,12.167c-11.515,9.712-21.792,20.623-31.319,32.25c-7.335,8.953-14.136,18.291-20.487,27.951
		c-0.132,0.225-0.305,0.424-0.481,0.668c-8.626-5.2-17.227-10.392-25.825-15.585c-0.028,0.05-0.06,0.087-0.099,0.128
		c10.164,12.617,20.347,25.233,30.621,37.983C155.642,117.913,176.338,85.451,204.416,57.924z"/>
	<path fill-rule="evenodd" clip-rule="evenodd" fill="#4A494A" d="M339.967,57.924c-0.17,0.106-0.36,0.194-0.519,0.302
		c-5.824,3.645-11.32,7.751-16.565,12.167c-11.515,9.712-21.792,20.623-31.319,32.25c-7.335,8.953-14.136,18.291-20.487,27.951
		c-0.132,0.225-0.305,0.424-0.481,0.668c-8.626-5.2-17.227-10.392-25.825-15.585c-0.028,0.05-0.06,0.087-0.099,0.128
		c10.164,12.617,20.347,25.233,30.621,37.983C291.194,117.913,311.89,85.451,339.967,57.924z"/>
	<path fill-rule="evenodd" clip-rule="evenodd" fill="#4A494A" d="M339.967,193.476c-0.17,0.106-0.36,0.194-0.519,0.302
		c-5.824,3.645-11.32,7.751-16.565,12.167c-11.515,9.712-21.792,20.623-31.319,32.25c-7.335,8.953-14.136,18.291-20.487,27.951
		c-0.132,0.225-0.305,0.424-0.481,0.668c-8.626-5.2-17.227-10.392-25.825-15.585c-0.028,0.049-0.06,0.087-0.099,0.128
		c10.164,12.617,20.347,25.233,30.621,37.983C291.194,253.464,311.89,221.003,339.967,193.476z"/>
	<path fill-rule="evenodd" clip-rule="evenodd" fill="#4A494A" d="M204.416,193.476c-0.17,0.106-0.36,0.194-0.519,0.302
		c-5.824,3.645-11.32,7.751-16.565,12.167c-11.515,9.712-21.792,20.623-31.319,32.25c-7.335,8.953-14.136,18.291-20.487,27.951
		c-0.132,0.225-0.305,0.424-0.481,0.668c-8.626-5.2-17.227-10.392-25.825-15.585c-0.028,0.049-0.06,0.087-0.099,0.128
		c10.164,12.617,20.347,25.233,30.621,37.983C155.642,253.464,176.338,221.003,204.416,193.476z"/>
</g>
</svg>
