<?xml version="1.0" encoding="utf-8"?>
<!-- Generator: Adobe Illustrator 16.0.0, SVG Export Plug-In . SVG Version: 6.00 Build 0)  -->
<svg version="1.2" baseProfile="tiny" id="Layer_1" xmlns="http://www.w3.org/2000/svg" xmlns:xlink="http://www.w3.org/1999/xlink"
	 x="0px" y="0px" width="200px" height="200px" viewBox="0 0 200 200" xml:space="preserve">
<circle fill="#333333" cx="100" cy="100" r="100"/>
<g>
	<g>
		<path fill-rule="evenodd" fill="#FFFFFF" d="M73.5,92.12c-4.21,0-7.62-3.42-7.62-7.62c0-4.21,3.41-7.62,7.62-7.62
			s7.62,3.41,7.62,7.62C81.12,88.7,77.71,92.12,73.5,92.12z M103.23,80.68c-0.11-0.84-0.9-1.57-1.761-1.62l-3.77-0.21
			c-0.85-0.04-1.771-0.74-2.04-1.55l-1.39-3.38c-0.39-0.76-0.23-1.9,0.34-2.54l2.51-2.81c0.57-0.64,0.59-1.69,0.04-2.35l-5.38-5.38
			c-0.66-0.55-1.71-0.53-2.351,0.04l-2.81,2.52c-0.64,0.57-1.78,0.72-2.54,0.33l-3.38-1.39c-0.811-0.27-1.51-1.19-1.55-2.04
			l-0.21-3.77c-0.05-0.86-0.78-1.65-1.62-1.76c0,0-1.99-0.27-3.82-0.27s-3.82,0.27-3.82,0.27c-0.84,0.11-1.58,0.91-1.62,1.76
			l-0.21,3.77c-0.04,0.85-0.75,1.77-1.56,2.04l-3.37,1.39c-0.76,0.39-1.91,0.24-2.54-0.33l-2.81-2.52
			c-0.641-0.57-1.69-0.59-2.351-0.04l-5.38,5.38c-0.55,0.66-0.53,1.71,0.04,2.35l2.51,2.81c0.57,0.64,0.73,1.78,0.34,2.54
			l-1.39,3.38c-0.27,0.81-1.19,1.51-2.04,1.55l-3.77,0.21c-0.86,0.05-1.65,0.78-1.76,1.62c0,0-0.27,1.99-0.27,3.82
			s0.27,3.81,0.27,3.81c0.11,0.85,0.9,1.58,1.76,1.63l3.77,0.21c0.85,0.04,1.771,0.74,2.04,1.55l1.39,3.37
			c0.39,0.77,0.23,1.91-0.34,2.55l-2.51,2.81c-0.57,0.641-0.59,1.69-0.04,2.35l5.38,5.381c0.66,0.55,1.71,0.529,2.351-0.04
			l2.81-2.521c0.64-0.56,1.78-0.72,2.54-0.33l3.37,1.391c0.81,0.27,1.52,1.189,1.56,2.04l0.21,3.771c0.04,0.85,0.78,1.649,1.62,1.76
			c0,0,1.99,0.27,3.82,0.27s3.82-0.27,3.82-0.27c0.84-0.11,1.569-0.91,1.62-1.76l0.21-3.771c0.04-0.851,0.74-1.771,1.56-2.04
			l3.37-1.391c0.76-0.39,1.9-0.229,2.54,0.33l2.81,2.521c0.641,0.569,1.69,0.59,2.351,0.04l5.38-5.381
			c0.55-0.659,0.53-1.709-0.04-2.35l-2.51-2.81c-0.57-0.64-0.73-1.78-0.34-2.55l1.39-3.37c0.27-0.81,1.19-1.51,2.04-1.55l3.77-0.21
			c0.86-0.05,1.65-0.78,1.761-1.63c0,0,0.27-1.98,0.27-3.81S103.23,80.68,103.23,80.68z"/>
	</g>
	<g>
		<path fill-rule="evenodd" fill="#FFFFFF" d="M126.5,123.12c-4.21,0-7.62-3.42-7.62-7.62c0-4.21,3.41-7.62,7.62-7.62
			s7.62,3.41,7.62,7.62C134.12,119.7,130.71,123.12,126.5,123.12z M156.23,111.68c-0.11-0.84-0.9-1.57-1.761-1.619l-3.77-0.211
			c-0.851-0.039-1.771-0.74-2.04-1.55l-1.391-3.38c-0.39-0.76-0.229-1.9,0.341-2.54l2.51-2.81c0.569-0.64,0.59-1.69,0.04-2.35
			l-5.38-5.38c-0.66-0.55-1.71-0.53-2.351,0.04l-2.81,2.52c-0.64,0.57-1.78,0.72-2.54,0.33l-3.38-1.39
			c-0.811-0.27-1.511-1.19-1.55-2.04l-0.211-3.77c-0.05-0.86-0.779-1.65-1.619-1.76c0,0-1.99-0.27-3.82-0.27s-3.82,0.27-3.82,0.27
			c-0.84,0.11-1.58,0.91-1.619,1.76l-0.211,3.77c-0.039,0.85-0.75,1.77-1.56,2.04l-3.37,1.39c-0.76,0.39-1.91,0.24-2.54-0.33
			l-2.81-2.52c-0.641-0.57-1.69-0.59-2.351-0.04l-5.38,5.38c-0.55,0.66-0.529,1.71,0.04,2.35l2.51,2.81
			c0.57,0.64,0.73,1.78,0.341,2.54l-1.391,3.38c-0.27,0.81-1.189,1.511-2.04,1.55l-3.77,0.211c-0.86,0.049-1.65,0.779-1.76,1.619
			c0,0-0.27,1.99-0.27,3.82s0.27,3.811,0.27,3.811c0.11,0.85,0.9,1.58,1.76,1.629l3.77,0.211c0.851,0.039,1.771,0.74,2.04,1.55
			l1.391,3.37c0.39,0.77,0.229,1.91-0.341,2.55l-2.51,2.81c-0.569,0.641-0.59,1.69-0.04,2.35l5.38,5.381
			c0.66,0.55,1.71,0.529,2.351-0.04l2.81-2.521c0.64-0.56,1.78-0.72,2.54-0.33l3.37,1.391c0.81,0.27,1.521,1.189,1.56,2.04
			l0.211,3.771c0.039,0.85,0.779,1.649,1.619,1.76c0,0,1.99,0.27,3.82,0.27s3.82-0.27,3.82-0.27c0.84-0.11,1.569-0.91,1.619-1.76
			l0.211-3.771c0.039-0.851,0.739-1.771,1.56-2.04l3.37-1.391c0.76-0.39,1.9-0.229,2.54,0.33l2.81,2.521
			c0.641,0.569,1.69,0.59,2.351,0.04l5.38-5.381c0.55-0.659,0.529-1.709-0.04-2.35l-2.51-2.81c-0.57-0.64-0.73-1.78-0.341-2.55
			l1.391-3.37c0.27-0.81,1.189-1.511,2.04-1.55l3.77-0.211c0.86-0.049,1.65-0.779,1.761-1.629c0,0,0.27-1.98,0.27-3.811
			S156.23,111.68,156.23,111.68z"/>
	</g>
</g>
</svg>
