<?xml version="1.0" encoding="utf-8"?>
<!-- Generator: Adobe Illustrator 16.0.0, SVG Export Plug-In . SVG Version: 6.00 Build 0)  -->
<!DOCTYPE svg PUBLIC "-//W3C//DTD SVG 1.1//EN" "http://www.w3.org/Graphics/SVG/1.1/DTD/svg11.dtd">
<svg version="1.1" id="Layer_1" xmlns="http://www.w3.org/2000/svg" xmlns:xlink="http://www.w3.org/1999/xlink" x="0px" y="0px"
	 width="512px" height="512px" viewBox="0 0 512 512" enable-background="new 0 0 512 512" xml:space="preserve">
<path id="user-3-icon" d="M405.587,512H106.416c0-37.116-1.056-52.139,5.604-66.566c6.695-14.498,19.852-23.567,41.408-28.539
	c54.278-12.504,54.125-16.773,47.759-28.496c-29.977-55.203-35.426-104.198-15.343-137.956
	c14.087-23.679,39.659-37.257,70.159-37.257c30.271,0,55.683,13.384,69.723,36.723c24.611,40.909,7.525,96.198-14.839,138.364
	c-6.275,11.823-6.418,16.139,47.689,28.621c21.557,4.972,34.715,14.041,41.407,28.539C406.621,459.812,405.587,474.418,405.587,512z
	 M135.5,482.858h241.006c0.01-26.206-1.731-32.323-24.478-37.569c-31.017-7.149-60.517-13.652-70.169-34.8
	c-4.832-10.583-3.729-22.653,3.283-35.871c16.811-31.69,34.003-79.117,15.612-109.688c-8.771-14.579-24.663-22.605-44.753-22.605
	c-20.262,0-36.284,8.174-45.113,23.019c-14.408,24.216-8.61,63.999,15.907,109.151c7.148,13.163,8.343,25.229,3.551,35.854
	c-9.663,21.43-39.303,27.784-70.37,34.938C137.229,450.535,135.49,456.652,135.5,482.858z"/>
<path id="light-bulb-18-icon" d="M272.539,158.364H239.41c-2.322,0-4.204,1.882-4.204,4.205c0,2.322,1.882,4.204,4.204,4.204h33.129
	c2.322,0,4.204-1.882,4.204-4.204C276.743,160.246,274.861,158.364,272.539,158.364z M271.783,172.361h-31.617
	c-2.321,0-4.203,1.884-4.203,4.205c0,2.322,1.882,4.204,4.203,4.204h31.617c2.322,0,4.203-1.881,4.203-4.204
	C275.986,174.245,274.105,172.361,271.783,172.361z M240.384,186.164c8.185,7.568,9.027,9.087,12.295,9.087h6.293
	c3.193,0,3.98-1.408,12.594-9.087H240.384z M303.835,85.428c0,28.466-24.479,44.419-24.479,66.883h-11.147
	c0.01-27.687,24.278-42.27,24.278-66.883c0-46.073-73.021-46.145-73.021,0c0,24.591,23.85,38.546,24.402,66.883h-11.271
	c0-22.464-24.481-38.417-24.481-66.883C208.113,24.249,303.835,24.187,303.835,85.428z M262.032,27.624h-11.45V7.013h11.45V27.624z
	 M301.352,17.964l-10.09-5.414l-10.076,18.78l10.09,5.414L301.352,17.964z M330.635,46.325l-6.669-9.308l-18.321,13.131l6.67,9.307
	L330.635,46.325z M332.657,118.558l-20.612-8.351l-4.3,10.613l20.614,8.351L332.657,118.558z M339.515,78.084h-23.357v11.451h23.357
	V78.084z M230.814,31.33l-10.077-18.78l-10.09,5.414l10.076,18.78L230.814,31.33z M206.356,50.147l-18.322-13.131l-6.67,9.308
	l18.321,13.13L206.356,50.147z M204.453,119.819l-4.696-10.443l-20.613,9.267l4.695,10.444L204.453,119.819z M195.845,78.084
	h-23.359v11.451h23.359V78.084z"/>
</svg>
